<?xml version="1.0" encoding="utf-8"?>
<!-- Generator: Adobe Illustrator 22.1.0, SVG Export Plug-In . SVG Version: 6.00 Build 0)  -->
<svg version="1.1" id="Layer_1" xmlns="http://www.w3.org/2000/svg" xmlns:xlink="http://www.w3.org/1999/xlink" x="0px" y="0px"
	 viewBox="0 0 334.5 335" enable-background="new 0 0 334.5 335" xml:space="preserve">
<circle id="background_1_" fill="#6C6C6E" cx="167.3" cy="167.4" r="167"/>
<path id="shadow_1_" opacity="0.1" fill="#FFFFFF" d="M331.8,178.2c-46.4-32.2-102.7-51.1-163.5-51.1c-61.7,0-118.8,19.4-165.6,52.5
	C9,265,80.3,332.3,167.3,332.3C254.7,332.3,326.3,264.2,331.8,178.2"/>
<linearGradient id="lineShadow_1_" gradientUnits="userSpaceOnUse" x1="167.25" y1="333.4268" x2="167.25" y2="-0.5733">
	<stop  offset="0" style="stop-color:#010101;stop-opacity:0.3"/>
	<stop  offset="1" style="stop-color:#FFFFFF;stop-opacity:0.5"/>
</linearGradient>
<path id="lineShadow" fill="url(#lineShadow_1_)" d="M167.3,3.4c43.8,0,85,17.1,116,48s48,72.2,48,116s-17.1,85-48,116
	s-72.2,48-116,48s-85-17.1-116-48s-48-72.2-48-116s17.1-85,48-116S123.4,3.4,167.3,3.4 M167.3,0.4c-92.2,0-167,74.8-167,167
	s74.8,167,167,167s167-74.8,167-167S259.5,0.4,167.3,0.4L167.3,0.4z"/>
<g id="rectangles_1_">
	<linearGradient id="SVGID_1_" gradientUnits="userSpaceOnUse" x1="167.4718" y1="31.9094" x2="167.4976" y2="-24.9878">
		<stop  offset="0" style="stop-color:#F7F8F9"/>
		<stop  offset="1" style="stop-color:#BDBEC0"/>
	</linearGradient>
	<path fill="url(#SVGID_1_)" d="M166.4,0.3c-13.2,0-26.1,1.6-38.4,4.5l-3.1,5.4v16.2c0,3.9,3.2,7.1,7.1,7.1h71.2
		c3.9,0,7.1-3.2,7.1-7.1v-16l-3.2-5.4C194.3,2,181,0.4,167.4,0.3H166.4z"/>
	<linearGradient id="SVGID_2_" gradientUnits="userSpaceOnUse" x1="283.8844" y1="98.2956" x2="341.1443" y2="70.6855">
		<stop  offset="0" style="stop-color:#F7F8F9"/>
		<stop  offset="1" style="stop-color:#BDBEC0"/>
	</linearGradient>
	<path fill="url(#SVGID_2_)" d="M311.3,82.2c-6.7-11.4-14.6-21.7-23.4-30.8l-6.2,0l-14,8.2c-3.4,2-4.5,6.3-2.5,9.7l36.2,61.4
		c2,3.4,6.3,4.5,9.7,2.5l13.8-8.1l3-5.5c-3.8-12.5-9.1-24.7-15.9-36.5L311.3,82.2z"/>
	<linearGradient id="SVGID_3_" gradientUnits="userSpaceOnUse" x1="284.6705" y1="231.8691" x2="339.9326" y2="259.0235">
		<stop  offset="0" style="stop-color:#F7F8F9"/>
		<stop  offset="1" style="stop-color:#BDBEC0"/>
	</linearGradient>
	<path fill="url(#SVGID_3_)" d="M314.5,246c6.2-11.7,10.9-23.8,14.2-36l-3.3-5.3l-14.3-7.7c-3.4-1.8-7.7-0.5-9.6,2.9L268,262.7
		c-1.8,3.4-0.5,7.7,2.9,9.6l14.1,7.5l6.3-0.3c8.7-9.7,16.4-20.6,22.8-32.6L314.5,246z"/>
	<linearGradient id="SVGID_4_" gradientUnits="userSpaceOnUse" x1="168.1358" y1="302.7597" x2="167.9082" y2="357.7557">
		<stop  offset="0" style="stop-color:#F7F8F9"/>
		<stop  offset="1" style="stop-color:#BDBEC0"/>
	</linearGradient>
	<path fill="url(#SVGID_4_)" d="M169.2,334.7c13.2,0,26.1-1.6,38.4-4.5l3.1-5.4v-16.2c0-3.9-3.2-7.1-7.1-7.1h-71.2
		c-3.9,0-7.1,3.2-7.1,7.1v16l3.2,5.4c12.7,3.1,25.9,4.7,39.5,4.8H169.2z"/>
	<linearGradient id="SVGID_5_" gradientUnits="userSpaceOnUse" x1="50.5867" y1="234.6016" x2="-3.8852" y2="266.4286">
		<stop  offset="0" style="stop-color:#F7F8F9"/>
		<stop  offset="0.844" style="stop-color:#BDBEC0"/>
	</linearGradient>
	<path fill="url(#SVGID_5_)" d="M23.2,251.8c6.6,11.4,14.4,21.8,23.1,31l6.2,0l14-8.1c3.4-2,4.5-6.3,2.6-9.6l-35.6-61.7
		c-2-3.4-6.3-4.5-9.6-2.6l-13.8,8L7,214.3c3.7,12.5,8.9,24.8,15.6,36.6L23.2,251.8z"/>
	<linearGradient id="SVGID_6_" gradientUnits="userSpaceOnUse" x1="49.538" y1="98.2847" x2="4.0254" y2="71.1272">
		<stop  offset="0" style="stop-color:#F7F8F9"/>
		<stop  offset="0.9216" style="stop-color:#BDBEC0"/>
	</linearGradient>
	<path fill="url(#SVGID_6_)" d="M22.3,83.6C15.7,95.1,10.6,107,6.9,119.1l3.1,5.4l14,8.1c3.4,2,7.7,0.8,9.6-2.6l35.6-61.7
		c2-3.4,0.8-7.7-2.6-9.6l-13.8-8l-6.3,0.1c-9,9.4-17,20.1-23.9,31.8L22.3,83.6z"/>
</g>
<path id="innerLine" opacity="0.6" fill="#FFFFFF" d="M167.3,3.5c-90.6,0-164,73.4-164,164c0,90.6,73.4,164,164,164
	s164-73.4,164-164C331.3,76.9,257.9,3.5,167.3,3.5 M167.3,330.6c-90.1,0-163.1-73-163.1-163.1c0-90.1,73-163.1,163.1-163.1
	s163.1,73,163.1,163.1C330.5,257.6,257.4,330.6,167.3,330.6"/>
<linearGradient id="linerShadow_1_" gradientUnits="userSpaceOnUse" x1="167.25" y1="42.0934" x2="167.25" y2="302.0934">
	<stop  offset="0" style="stop-color:#010101;stop-opacity:0.3"/>
	<stop  offset="1" style="stop-color:#010101;stop-opacity:0.1"/>
</linearGradient>
<path id="linerShadow" opacity="0.3" fill="url(#linerShadow_1_)" stroke="#FFFFFF" stroke-miterlimit="10" d="M167.3,37.4
	c-71.8,0-130,58.2-130,130s58.2,130,130,130s130-58.2,130-130S239,37.4,167.3,37.4z M167.3,273.7C108.6,273.7,61,226.1,61,167.4
	c0-58.7,47.6-106.3,106.3-106.3s106.3,47.6,106.3,106.3C273.5,226.1,225.9,273.7,167.3,273.7z"/>
<path id="line_1_" fill="#FFFFFF" d="M54.4,167.4c0-62.3,50.5-112.9,112.9-112.9c62.3,0,112.9,50.5,112.9,112.9
	c0,62.3-50.5,112.9-112.9,112.9C104.9,280.3,54.4,229.8,54.4,167.4 M46.3,167.4c0,66.8,54.2,121,121,121c66.8,0,121-54.2,121-121
	c0-66.8-54.2-121-121-121C100.4,46.4,46.3,100.6,46.3,167.4"/>
	<text text="" x="50%" y="50%" dominant-baseline="middle" text-anchor="middle" fill="white" font-size="100px">
    500K
  </text>
</svg>
