<?xml version="1.0" encoding="utf-8"?>
<!-- Generator: Adobe Illustrator 22.1.0, SVG Export Plug-In . SVG Version: 6.00 Build 0)  -->
<svg version="1.1" id="Layer_1" xmlns="http://www.w3.org/2000/svg" xmlns:xlink="http://www.w3.org/1999/xlink" x="0px" y="0px"
	 viewBox="0 0 328 88" style="enable-background:new 0 0 328 88;" xml:space="preserve">
<style type="text/css">
	.st0{fill:#172A51;}
	.st1{fill:#37B5E2;}
</style>
<path class="st0" d="M8.4,37.8c0-0.7,0.5-1.3,1.3-1.3h26.9c0.7,0,1.3,0.6,1.3,1.3v3.7c0,0.7-0.5,1.3-1.3,1.3H15.4v15.4h18
	c0.7,0,1.3,0.6,1.3,1.3v3.7c0,0.7-0.6,1.3-1.3,1.3h-18V82c0,0.7-0.6,1.3-1.3,1.3H9.7c-0.7,0-1.3-0.6-1.3-1.3V37.8z"/>
<path class="st0" d="M68,35.8c13.4,0,24.2,10.7,24.2,24.1s-10.8,24-24.2,24c-13.4,0-24.1-10.6-24.1-24S54.6,35.8,68,35.8z M68,77.2
	c9.6,0,17.5-7.7,17.5-17.3c0-9.5-7.9-17.4-17.5-17.4c-9.5,0-17.4,7.9-17.4,17.4C50.6,69.5,58.5,77.2,68,77.2z"/>
<path class="st0" d="M102.9,37.8c0-0.7,0.6-1.3,1.3-1.3h4.5c0.7,0,1.3,0.6,1.3,1.3v27.6c0,6.7,4.3,11.9,11.2,11.9
	c6.9,0,11.3-5.1,11.3-11.8V37.8c0-0.7,0.5-1.3,1.3-1.3h4.5c0.7,0,1.3,0.6,1.3,1.3v28c0,10.1-7.7,18.1-18.4,18.1
	c-10.6,0-18.2-7.9-18.2-18.1V37.8z"/>
<path class="st0" d="M151.1,37c0-0.7,0.6-1.2,1.3-1.2h1.7l29.2,33.5h0.1V37.8c0-0.7,0.5-1.3,1.3-1.3h4.3c0.7,0,1.3,0.6,1.3,1.3v44.9
	c0,0.7-0.6,1.2-1.3,1.2h-1.7L158,49.4h-0.1V82c0,0.7-0.5,1.3-1.3,1.3h-4.2c-0.7,0-1.3-0.6-1.3-1.3V37z"/>
<path class="st0" d="M210.5,42.8h-11c-0.7,0-1.3-0.6-1.3-1.3v-3.7c0-0.7,0.5-1.3,1.3-1.3h28.9c0.7,0,1.3,0.6,1.3,1.3v3.7
	c0,0.7-0.5,1.3-1.3,1.3h-11V82c0,0.7-0.6,1.3-1.3,1.3h-4.4c-0.7,0-1.3-0.6-1.3-1.3V42.8z"/>
<path class="st0" d="M284.4,37c0-0.7,0.6-1.2,1.3-1.2h1.7l29.2,33.5h0.1V37.8c0-0.7,0.5-1.3,1.3-1.3h4.3c0.7,0,1.3,0.6,1.3,1.3v44.9
	c0,0.7-0.6,1.2-1.3,1.2h-1.7l-29.2-34.5h-0.1V82c0,0.7-0.5,1.3-1.3,1.3h-4.2c-0.7,0-1.3-0.6-1.3-1.3V37z"/>
<path class="st0" d="M237.6,21.5h-8.8v-8.7h8.8V21.5z"/>
<path class="st0" d="M256.9,22.4h-2.9v-2.9h2.9V22.4z"/>
<path class="st0" d="M272.7,29.8H269v-3.7h3.8V29.8z"/>
<g>
	<path class="st1" d="M253,60.8l-15.9-22.1c-0.5-0.9,0-1.9,1.1-1.9h5c0.5,0,0.9,0.3,1.1,0.6l12.3,16.9l12.3-16.9
		c0.2-0.3,0.6-0.6,1.1-0.6h5.1c1.1,0,1.6,1.1,1.1,1.9l-16.1,22.1v21.1c0,0.7-0.6,1.3-1.3,1.3h-4.5c-0.7,0-1.3-0.6-1.3-1.3V60.8z"/>
	<path class="st1" d="M246.8,28.1h-3.4v-3.3h3.4V28.1z"/>
	<path class="st1" d="M267.9,14.5h-6.7V7.9h6.7V14.5z"/>
</g>
</svg>
